<svg xmlns="http://www.w3.org/2000/svg" id="Layer_1" data-name="Layer 1" viewBox="0 0 50 50"><defs><style>.cls-1{fill:#fff}</style></defs><title>logo</title><path d="M23.61,27.75l.19.35a2.79,2.79,0,0,1,.29,1.65,1.51,1.51,0,0,1-1.33,1.31,4.07,4.07,0,0,1-1.77,0,10.75,10.75,0,0,1-2.89-1,6.94,6.94,0,0,1-2.85-2.83A11.86,11.86,0,0,1,14.09,18a7.74,7.74,0,0,1,2.6-4.12,8.12,8.12,0,0,1,2.22-1.21,13.12,13.12,0,0,1,3.75-.92,8.59,8.59,0,0,1,6.2,1.71,9.57,9.57,0,0,1,3.35,4.73,7.33,7.33,0,0,1,.28,3.29,22.11,22.11,0,0,1-.89,4,10.19,10.19,0,0,1-2,3.79A8.37,8.37,0,0,0,28,32.07a20.71,20.71,0,0,0-.79,2.9,5.78,5.78,0,0,1-.39,1.22,1.06,1.06,0,0,1-1.09.67l-4.95,0a.76.76,0,0,0-.48.15,1.63,1.63,0,0,1-2.6-1,1.32,1.32,0,0,0-.21-.43,54.14,54.14,0,0,1-4.64-7.07c-.49-.9-.93-1.82-1.38-2.75a10.43,10.43,0,0,1-1-4,13.68,13.68,0,0,1,.42-4.59,11.52,11.52,0,0,1,3.53-5.61v0a.84.84,0,0,0,.41-.92,1.44,1.44,0,0,1,.82-1.48,1.55,1.55,0,0,1,1.78.12.35.35,0,0,0,.42.06,14.12,14.12,0,0,1,3.24-1,13.56,13.56,0,0,1,6.3.3A11.09,11.09,0,0,1,32.12,11a9.73,9.73,0,0,1,2.49,3.57,15.93,15.93,0,0,1-1,14.18,19.25,19.25,0,0,1-1.89,2.9,7.47,7.47,0,0,0-1.35,2.81,22.2,22.2,0,0,0-.76,4.43,1.43,1.43,0,0,1-1.37,1.28H21.41c-.75,0-1.5,0-2.25,0a.42.42,0,0,1-.44-.27.48.48,0,0,1,0-.58,2.3,2.3,0,0,1,1.81-.91l5.87,0,1.53,0c.15,0,.21-.05.23-.21.14-.93.27-1.87.44-2.79a21.12,21.12,0,0,1,.85-2.84A8.66,8.66,0,0,1,31.06,30a20.54,20.54,0,0,0,2.56-4.14,13.62,13.62,0,0,0,1.15-4.33,15.44,15.44,0,0,0-.22-4.7,10.78,10.78,0,0,0-2.11-4.7,8.54,8.54,0,0,0-2.44-2,12.62,12.62,0,0,0-5.33-1.54,12.31,12.31,0,0,0-5.15.54c-.45.15-.88.35-1.32.51C18,9.76,18,9.85,18,10a1.63,1.63,0,0,1-2.6,1.73c-.14-.12-.23-.12-.36,0a10.55,10.55,0,0,0-3.55,7.06,14,14,0,0,0,.28,4.34,10.47,10.47,0,0,0,1.07,2.62,58.31,58.31,0,0,0,5,7.56l.55.71a.23.23,0,0,0,.29.08A1.61,1.61,0,0,1,20.8,35a.3.3,0,0,0,.32.2c1.4,0,2.79,0,4.19,0,.19,0,.26-.09.3-.26.2-.9.37-1.81.63-2.69a11.17,11.17,0,0,1,1.7-3.63c.21-.29.46-.55.67-.84A8.06,8.06,0,0,0,30,24.77c.3-1.22.56-2.45.75-3.68a5.13,5.13,0,0,0-.45-2.72,6.94,6.94,0,0,0-6.11-4.51,10.39,10.39,0,0,0-4.34.72,8.57,8.57,0,0,0-1.63.74,5.55,5.55,0,0,0-2.13,2.82,9.32,9.32,0,0,0-.24,5.79,9.43,9.43,0,0,0,1.3,3,6.13,6.13,0,0,0,3.28,2.35,12,12,0,0,0,1.31.33.93.93,0,0,0,.29,0c.23,0,.54.07.64-.23a.79.79,0,0,0-.4-1,1.34,1.34,0,0,0-.38-.14,5.94,5.94,0,0,1-2.81-1.56,6.22,6.22,0,0,1-1.92-4,6.84,6.84,0,0,1,.25-3.05,4.9,4.9,0,0,1,4.1-3.49,4.9,4.9,0,0,1,3.78.84,4.2,4.2,0,0,1,1.67,2.7,8.8,8.8,0,0,1,.14,1.7c0,.46-.09.52-.56.52H19.26c-.19,0-.27,0-.25.25a5.42,5.42,0,0,0,.7,2.55,3.15,3.15,0,0,0,2.68,1.52,5.16,5.16,0,0,0,3-.83,3.14,3.14,0,0,1,.31-.18.48.48,0,0,1,.67.14c.13.17.25.35.39.5s.09.22,0,.34a5.18,5.18,0,0,1-2.62,1.36Zm-4.51-7,.13,0h5.95c.14,0,.2-.05.18-.19s0-.26,0-.4a2.8,2.8,0,0,0-1.95-2.48,3.58,3.58,0,0,0-1.69-.07A3.23,3.23,0,0,0,19.1,20.75Z" class="cls-1"/><path d="M15.53,48.87a3.79,3.79,0,0,1-3.69-3.16,3.72,3.72,0,0,1,3-4.25,3.58,3.58,0,0,1,3.29.94.46.46,0,0,1,.09.68.48.48,0,0,1-.7,0A2.85,2.85,0,0,0,14,42.7a2.88,2.88,0,0,0-1.22,3.21,2.85,2.85,0,0,0,2.66,2,2.75,2.75,0,0,0,2-.75.78.78,0,0,1,.26-.17.45.45,0,0,1,.51.17.45.45,0,0,1-.09.58,3.42,3.42,0,0,1-1.62.92C16.2,48.78,15.86,48.81,15.53,48.87Z" class="cls-1"/><path d="M23.73,43.49H20.52a.77.77,0,0,1-.8-.5.78.78,0,0,1,.68-1.06h6.54a.79.79,0,0,1,.86.71.75.75,0,0,1-.76.85H23.73Z" class="cls-1"/><path d="M23.83,48.44H20.61a.78.78,0,1,1-.15-1.55h6.59a.77.77,0,0,1,.84.76.74.74,0,0,1-.73.79c-.42,0-.84,0-1.26,0Z" class="cls-1"/><path d="M29.43,45.12v-3c0-.31.14-.51.37-.55a.42.42,0,0,1,.51.33.92.92,0,0,1,0,.29c0,1.75,0,3.5,0,5.26,0,.22.06.3.29.29.94,0,1.89,0,2.83,0,.33,0,.51.17.5.45a.4.4,0,0,1-.31.39,1.09,1.09,0,0,1-.31,0H30.1c-.53,0-.67-.14-.67-.67Z" class="cls-1"/><path d="M35,45.11c0-1,0-2,0-3,0-.34.15-.55.42-.56s.48.18.49.52v1.1c0,1.42,0,2.85,0,4.27,0,.22.06.28.28.28.94,0,1.89,0,2.83,0,.33,0,.51.16.51.44a.4.4,0,0,1-.32.4,1,1,0,0,1-.29,0H35.67c-.52,0-.65-.14-.66-.66Z" class="cls-1"/><path d="M23.16,45.74c.29-.66.18-.75,0-1.15l.17,0h3.89a.58.58,0,0,1,.63.51.58.58,0,0,1-.59.66H23.16Z" class="cls-1"/><path d="M21.43,44.57h1.1a.57.57,0,0,1,.58.59.58.58,0,0,1-.59.58H20.29a.56.56,0,0,1-.58-.6.56.56,0,0,1,.59-.57Z" class="cls-1"/><path d="M26.17,5.42a1.24,1.24,0,0,0,.06-.18c.21-1,.41-2,.61-3,0-.19,0-.4.08-.59A.46.46,0,0,1,27,1.42a.19.19,0,0,1,.19,0,.21.21,0,0,1,.05.16c-.12.65-.23,1.31-.37,2q-.3,1.41-.63,2.82a1.59,1.59,0,0,1-.16.32A1.48,1.48,0,0,1,26,6.34c-.08-.64-.15-1.29-.2-1.94Q25.62,3,25.51,1.52a.78.78,0,0,1,.09-.24c0,.07.13.13.14.2.07.48.15,1,.19,1.46.08.8.13,1.6.2,2.4Z" class="cls-1"/><path d="M30.37,6.63l.06-.09c.59-1.1,1.17-2.21,1.75-3.31,0,0,0-.07,0-.08l.26-.07c0,.07.05.17,0,.22-.37.72-.74,1.43-1.14,2.14s-.76,1.34-1.15,2a3.48,3.48,0,0,1-.28.39l-.08,0a2,2,0,0,1,0-.35c.28-1.35.57-2.69.85-4,.05-.23.1-.46.16-.7s0-.24.16-.2.09.16.08.24c-.1.6-.2,1.19-.32,1.79s-.31,1.36-.46,2.05Z" class="cls-1"/><path d="M21.79,5.24c0-.07,0-.14,0-.21l0-3.28c0-.13,0-.27,0-.4s.06-.22.19-.22.14.11.14.21c0,1.53,0,3.06,0,4.59a3,3,0,0,1,0,.42.65.65,0,0,1-.08.17c-.05,0-.13-.09-.15-.14-.14-.41-.28-.82-.4-1.24C21,4,20.68,2.77,20.34,1.59a.57.57,0,0,1,0-.25c.06.06.15.1.17.17.26.74.51,1.49.75,2.24.14.46.27.93.4,1.4l0,.09Z" class="cls-1"/><path d="M16.09,2.26l.17.11a.9.9,0,0,1-.19.15c-.25.08-.35.35-.22.69a2.23,2.23,0,0,0,.76,1c.32.25.66.48,1,.75a2.05,2.05,0,0,1,.81,1.74.79.79,0,0,1-.75.76c-.08,0-.16-.08-.25-.12a.78.78,0,0,1,.22-.15c.38-.09.46-.17.44-.56a1.64,1.64,0,0,0-.49-1.18c-.33-.32-.7-.62-1.07-.92a2.93,2.93,0,0,1-.86-1,1,1,0,0,1-.08-.91A.55.55,0,0,1,16.09,2.26Z" class="cls-1"/></svg>